<svg xmlns="http://www.w3.org/2000/svg" viewBox="0 0 64 64" role="img" aria-label="Joyful Creationz favicon">
  <defs>
    <linearGradient id="g" x1="10" y1="8" x2="56" y2="58" gradientUnits="userSpaceOnUse">
      <stop offset="0" stop-color="#d7b9ff"/>
      <stop offset="0.55" stop-color="#9b5cff"/>
      <stop offset="1" stop-color="#d16eff"/>
    </linearGradient>
    <radialGradient id="glow" cx="0.35" cy="0.28" r="0.8">
      <stop offset="0" stop-color="#ffffff" stop-opacity="0.9"/>
      <stop offset="0.35" stop-color="#ffffff" stop-opacity="0.25"/>
      <stop offset="1" stop-color="#ffffff" stop-opacity="0"/>
    </radialGradient>
  </defs>
  <rect width="64" height="64" rx="16" fill="#14091f"/>
  <circle cx="20" cy="16" r="11" fill="url(#glow)"/>
  <path d="M15 37.5c4.8-11.5 11-17.5 18.5-18.2 4.9-.5 9.6 1.2 14.1 5.1 5.1 4.4 8.1 10.2 8.9 17.3-.4 1.2-1.3 2.1-2.6 2.7-5.1 2.4-11.2 3.2-18.1 2.3-7-.9-13.1-3.1-18.3-6.7-1.1-.8-2.1-1.7-2.5-2.5z" fill="url(#g)"/>
  <path d="M18 28.5c3.8-6.1 8.5-9.4 14.1-9.9 3.7-.3 7.1.6 10.3 2.6 3.5 2.2 6 5.5 7.5 9.9-1.4-2.1-3.4-4-6-5.7-2.7-1.8-5.6-2.7-8.8-2.8-5.7-.1-11.1 2.1-16.2 6.5-.4.4-.7.8-.9 1.1z" fill="#fff" fill-opacity="0.25"/>
</svg>
